<?xml version="1.0" standalone="no"?>
<!DOCTYPE svg PUBLIC "-//W3C//DTD SVG 20010904//EN"
 "http://www.w3.org/TR/2001/REC-SVG-20010904/DTD/svg10.dtd">
<svg version="1.0" xmlns="http://www.w3.org/2000/svg"
 width="400.000000pt" height="400.000000pt" viewBox="0 0 400.000000 400.000000"
 preserveAspectRatio="xMidYMid meet">
<metadata>
Created by potrace 1.14, written by Peter Selinger 2001-2017
</metadata>
<g transform="translate(0.000000,400.000000) scale(0.100000,-0.100000)"
fill="#000000" stroke="none">
<path d="M1800 3573 c-244 -35 -399 -81 -564 -164 -406 -205 -708 -580 -820
-1016 -60 -234 -65 -514 -13 -748 3 -11 12 -46 20 -77 8 -32 12 -58 9 -58 -4
0 -1 -4 6 -9 7 -4 14 -20 16 -34 1 -14 8 -32 15 -40 9 -12 9 -16 -1 -20 -9 -4
-10 -6 -1 -6 7 -1 17 -11 24 -22 9 -17 8 -20 -3 -14 -7 3 -5 0 5 -8 14 -11 15
-16 5 -20 -8 -3 -6 -6 6 -6 13 -1 17 -6 13 -21 -3 -11 -1 -18 4 -14 5 3 9 -1
9 -10 0 -8 6 -17 13 -19 9 -4 9 -6 0 -6 -8 -1 -4 -10 8 -24 36 -39 88 -127 79
-132 -5 -3 -12 4 -15 16 -4 11 -9 18 -12 16 -9 -10 17 -46 30 -42 6 3 22 -10
35 -29 13 -18 47 -62 77 -96 58 -67 66 -83 38 -74 -15 5 -15 4 -3 -4 8 -6 19
-7 25 -2 11 9 38 -14 28 -24 -11 -11 -24 -6 -17 6 4 7 3 8 -4 4 -16 -10 -15
-14 9 -27 15 -8 19 -8 15 0 -4 6 0 11 8 11 20 0 20 -5 -1 -26 -17 -17 -17 -18
0 -11 9 3 17 2 17 -4 0 -6 5 -7 11 -3 8 4 7 9 -2 15 -10 6 -10 9 -2 9 7 0 16
-6 20 -13 6 -9 90 -81 122 -104 2 -2 2 -6 -2 -9 -3 -4 -13 1 -22 10 -9 9 -21
16 -26 16 -6 0 -7 4 -4 10 3 6 -1 7 -9 4 -9 -3 -16 -2 -16 3 0 5 -6 17 -13 28
-11 14 -16 15 -22 5 -6 -9 -4 -11 5 -5 10 6 12 4 7 -9 -4 -9 -3 -15 2 -12 5 3
12 -1 15 -9 3 -9 17 -20 31 -25 16 -6 23 -14 19 -22 -4 -7 -3 -8 4 -4 6 4 17
-2 24 -14 7 -11 18 -20 24 -20 6 0 19 -9 29 -20 10 -11 20 -18 23 -15 3 3 14
-3 25 -12 10 -10 22 -18 26 -18 3 0 5 -3 3 -7 -4 -15 16 -8 22 8 4 10 2 13 -6
8 -7 -5 -8 -3 -3 6 5 9 4 11 -4 6 -6 -4 -14 0 -17 9 -5 11 -9 13 -14 5 -5 -8
-10 -7 -19 4 -8 10 -9 16 -1 21 5 3 10 1 10 -5 0 -6 5 -8 10 -5 6 3 13 -1 16
-9 3 -9 10 -14 14 -11 9 6 31 -19 29 -31 -1 -5 -1 -16 0 -24 1 -12 3 -13 10
-1 7 11 13 9 32 -10 13 -13 30 -22 37 -21 8 2 11 -1 7 -8 -3 -6 -3 -10 2 -9
19 3 34 -2 29 -9 -3 -5 1 -9 9 -10 8 -1 22 -3 30 -4 8 -1 15 -6 15 -11 0 -5
11 -2 25 7 14 10 31 13 38 9 13 -8 18 -10 42 -12 9 -1 12 -7 8 -18 -4 -11 -8
-12 -11 -5 -2 7 -8 12 -13 12 -6 0 -7 -4 -4 -10 9 -15 -4 -12 -20 4 -8 7 -11
17 -7 21 4 4 -3 2 -15 -6 -23 -14 -24 -19 -1 -23 7 -1 19 -5 26 -10 7 -4 16
-5 19 -2 3 3 13 0 21 -7 10 -7 13 -8 9 -1 -9 16 19 38 35 28 11 -7 27 -11 66
-16 6 -1 12 -5 12 -10 0 -5 -9 -6 -20 -3 -15 5 -20 2 -20 -12 0 -15 -2 -16
-10 -3 -6 9 -5 17 3 23 8 6 5 7 -7 3 -10 -4 -25 -1 -33 6 -13 10 -15 9 -11 -7
2 -12 11 -19 20 -17 9 1 19 -6 23 -15 6 -17 7 -17 19 0 13 16 14 16 37 -2 13
-10 32 -17 41 -16 9 2 22 -3 29 -11 9 -11 15 -12 26 -2 11 9 16 9 24 -3 7 -12
9 -12 9 1 0 9 3 11 8 5 9 -12 27 -17 67 -19 17 0 33 -5 37 -11 5 -6 8 -6 8 2
0 12 24 12 36 0 4 -4 13 -2 21 4 7 6 13 7 13 3 0 -16 99 -12 104 3 3 8 2 12
-3 8 -5 -3 -12 1 -14 7 -4 10 -6 10 -6 1 -1 -7 -6 -13 -12 -13 -5 0 -7 5 -3
12 4 7 3 8 -5 4 -6 -4 -8 -12 -5 -18 4 -6 1 -8 -7 -6 -8 3 -13 12 -11 19 3 11
1 12 -9 2 -15 -15 -33 -17 -25 -4 7 11 -13 9 -31 -2 -8 -5 -13 -3 -13 5 0 10
-2 10 -9 -1 -5 -8 -11 -9 -15 -3 -10 17 3 19 109 17 55 0 112 2 128 6 16 5 27
4 27 -2 0 -6 7 -6 19 1 25 13 31 13 31 -1 0 -5 -5 -7 -12 -3 -7 5 -8 3 -3 -6
6 -10 4 -12 -8 -7 -24 9 -21 0 3 -13 15 -8 20 -8 18 1 -2 7 6 14 17 16 17 3
18 2 5 -7 -12 -9 -10 -10 9 -5 18 6 22 4 16 -6 -5 -8 1 -6 12 4 16 14 22 15
26 5 3 -8 6 -6 6 6 1 15 4 16 16 6 13 -11 14 -10 9 6 -7 18 -6 18 16 -1 13
-11 20 -15 17 -8 -4 6 -3 14 3 18 5 3 10 0 10 -7 0 -9 3 -9 8 -2 4 6 17 10 29
9 12 -1 20 2 17 6 -2 5 7 7 22 6 19 -1 28 3 30 16 1 9 -2 17 -7 17 -5 0 -9 -4
-9 -8 0 -5 -6 -9 -12 -10 -7 -1 -29 -3 -48 -6 -19 -2 -35 -5 -35 -6 0 -1 -11
-3 -25 -5 -14 -1 -32 -6 -41 -9 -19 -8 -35 9 -19 19 5 3 10 1 10 -5 0 -7 6 -8
18 -2 9 5 35 13 57 17 22 5 45 9 50 11 6 2 19 5 30 8 99 24 345 134 411 183
l31 23 16 -22 c13 -18 15 -19 10 -4 -4 11 -2 17 3 13 5 -3 25 7 43 22 25 21
31 30 21 36 -9 6 -11 4 -5 -5 6 -10 4 -12 -9 -7 -9 4 -14 3 -11 -2 3 -5 1 -12
-5 -16 -5 -3 -10 0 -10 8 0 12 50 55 57 49 1 0 22 18 47 42 41 41 45 42 62 27
17 -15 17 -15 4 2 -12 16 -8 24 37 70 27 29 65 69 83 89 18 21 36 35 41 33 4
-3 10 -1 14 5 4 6 12 7 18 4 7 -4 9 -4 5 0 -4 5 4 26 18 47 13 21 20 39 15 39
-5 0 -14 -13 -21 -30 -7 -16 -16 -27 -21 -24 -12 7 33 75 47 70 6 -2 10 6 10
18 -1 11 4 20 10 19 7 -1 20 8 30 20 l19 22 -24 -20 c-28 -23 -28 -25 23 77
21 43 42 75 47 73 4 -3 11 0 15 6 5 8 3 9 -6 4 -10 -6 -11 -4 -5 11 22 53 86
246 82 250 -2 2 -14 -26 -27 -63 -180 -535 -664 -921 -1240 -989 -68 -8 -259
-8 -320 0 -25 3 -63 8 -85 11 -22 3 -82 17 -133 30 -306 81 -566 248 -772 495
-87 106 -221 332 -206 348 3 3 -1 13 -9 22 -15 16 -13 17 27 15 24 -2 52 -6
63 -10 16 -6 17 -5 5 4 -10 7 -11 13 -4 19 5 4 18 33 28 65 12 39 23 57 34 57
14 0 14 2 3 9 -9 6 -10 11 -2 15 6 4 9 12 6 17 -4 5 -1 9 4 9 6 0 10 3 9 8 -3
16 15 61 23 56 5 -3 6 3 2 12 -3 10 -2 15 3 12 5 -3 10 7 10 24 1 17 7 34 14
38 7 4 9 13 5 21 -6 8 -4 11 7 7 11 -5 14 0 10 19 -4 20 -2 24 8 18 10 -6 12
-4 7 8 -3 10 -2 17 4 17 6 0 7 5 4 10 -3 6 2 10 12 10 10 0 14 4 8 8 -17 12
-16 32 2 32 15 0 16 2 3 10 -12 8 -12 10 5 10 15 0 16 3 7 9 -11 6 -10 11 3
24 8 9 16 19 15 22 -1 21 1 25 10 20 5 -3 10 -1 10 4 0 6 -5 11 -11 11 -5 0
-7 5 -4 10 4 6 11 8 16 5 5 -3 6 2 2 11 -4 11 -2 15 4 11 6 -4 8 3 5 18 -3 19
0 25 14 26 11 0 14 3 6 6 -19 7 -4 23 16 16 14 -5 13 -2 -3 11 -11 10 -14 14
-6 10 11 -5 13 -3 8 9 -3 9 -2 19 3 22 6 4 10 -3 10 -13 0 -11 8 -26 17 -33
11 -10 14 -10 9 -1 -4 6 -2 12 3 12 6 0 11 -5 11 -11 0 -8 5 -8 15 1 11 9 19
10 28 1 10 -8 17 -7 25 1 9 9 12 9 12 -2 1 -12 4 -11 14 3 9 12 16 14 21 7 3
-5 11 -8 16 -5 5 4 9 0 9 -7 0 -8 3 -9 8 -3 8 13 22 13 41 1 9 -6 12 -5 8 1
-4 6 4 11 18 11 14 0 28 -4 31 -9 3 -5 14 -4 25 1 14 8 19 7 19 -2 0 -10 2
-10 8 -1 8 13 29 12 51 -1 10 -6 12 -5 7 3 -10 15 25 11 36 -4 5 -6 8 -5 8 4
0 11 3 11 17 0 9 -8 14 -9 10 -3 -8 14 60 13 82 0 9 -6 12 -5 7 2 -6 10 10 10
56 3 9 -1 12 7 -104 -279 -92 -226 -99 -247 -96 -301 2 -33 7 -59 12 -58 5 1
11 -4 14 -12 3 -8 0 -11 -7 -7 -7 5 -8 1 -4 -10 4 -10 8 -13 10 -7 3 7 19 3
43 -11 45 -24 49 -31 20 -33 -11 -1 -18 2 -15 7 3 5 -3 14 -14 20 -38 20 -33
-10 6 -32 45 -27 70 -33 53 -13 -20 24 17 30 167 30 78 0 139 3 137 7 -3 5 2
8 12 8 14 0 14 -3 4 -15 -7 -9 -19 -14 -25 -11 -8 3 -11 -2 -8 -14 5 -17 7
-17 29 7 13 14 21 30 18 35 -8 13 153 165 169 160 4 -1 7 3 7 9 0 7 21 31 46
54 l47 42 -174 0 c-229 1 -210 -1 -200 26 5 12 13 21 18 20 5 -1 8 12 7 28 -1
16 2 29 7 29 5 0 9 8 9 18 0 15 2 15 10 2 8 -11 9 -7 4 14 -4 18 -3 27 3 23 5
-3 9 4 9 16 -1 13 4 21 12 19 8 -1 11 2 7 8 -4 6 -1 18 7 27 11 14 11 16 -2 8
-9 -6 -6 4 8 29 12 20 22 42 22 48 0 6 8 17 18 25 9 8 11 12 5 8 -18 -9 -16 5
5 28 9 11 12 18 6 14 -6 -4 -2 11 8 33 11 22 25 40 32 40 6 0 4 5 -4 10 -11 7
-11 10 -2 10 7 0 10 5 7 10 -3 6 -1 10 5 10 6 0 8 4 5 10 -3 6 0 10 7 10 9 0
9 3 -2 10 -8 5 -10 10 -4 10 6 0 19 25 29 55 11 37 22 55 33 56 11 0 13 2 4 6
-10 4 -10 8 -1 19 6 8 9 14 5 14 -3 0 0 15 8 34 14 33 14 35 -7 38 -12 2 -265
1 -562 -2 -535 -5 -540 -5 -585 -27 -106 -54 -112 -64 -276 -466 -81 -200
-110 -262 -116 -247 -25 66 -27 342 -4 466 2 11 7 39 12 64 9 50 10 58 14 65
4 9 7 25 9 46 0 11 5 18 10 14 5 -3 13 0 17 6 5 8 3 9 -6 4 -10 -6 -12 -2 -7
16 4 13 7 28 7 32 0 5 4 6 8 3 4 -2 9 4 10 15 4 43 6 49 14 49 4 0 7 3 7 8 -3
19 2 33 10 27 5 -3 13 0 17 6 4 8 3 9 -4 5 -15 -9 -15 6 0 39 6 14 18 25 27
25 11 0 12 3 4 8 -17 11 1 37 18 26 10 -6 10 -3 -1 11 -14 17 -13 18 5 11 16
-6 17 -5 8 5 -17 17 3 53 24 45 13 -5 14 -4 3 9 -10 12 -10 15 4 15 9 0 16 3
16 8 0 4 11 20 24 35 15 17 22 35 19 47 -3 11 -1 20 4 20 5 0 17 14 26 30 10
17 27 30 38 30 10 0 19 5 19 11 0 5 6 7 13 3 6 -4 8 -3 4 1 -4 5 2 14 14 20
19 11 19 13 5 18 -10 4 -15 3 -11 -3 3 -6 1 -10 -6 -10 -6 0 -18 -8 -25 -17
-7 -10 -14 -13 -14 -7 0 6 11 21 25 34 14 13 25 19 25 14 0 -5 9 5 20 23 10
17 29 37 42 43 20 10 19 8 -5 -14 -15 -14 -25 -26 -21 -26 3 0 3 -6 -2 -13 -5
-7 -2 -5 7 5 9 9 19 15 23 13 3 -3 4 -2 1 1 -2 4 2 13 10 20 8 8 12 21 9 29
-4 9 0 15 10 15 10 0 14 -6 10 -17 -5 -15 -3 -15 11 2 9 11 21 20 28 20 7 0
12 7 12 15 0 8 8 14 18 14 9 -1 15 2 12 6 -3 5 4 11 15 15 11 3 20 11 20 16 0
6 4 8 9 4 6 -3 8 5 6 18 -4 17 3 27 24 40 26 15 41 14 41 -4 0 -4 -9 -6 -20
-4 -13 3 -18 0 -14 -7 5 -7 2 -8 -6 -3 -9 6 -11 4 -5 -5 5 -9 4 -11 -3 -6 -8
5 -10 1 -5 -10 4 -11 8 -13 11 -6 2 7 8 10 13 6 5 -3 8 0 7 7 -2 7 3 13 10 14
8 0 19 8 26 17 10 14 15 15 26 5 12 -10 12 -9 1 6 -11 13 -17 15 -27 6 -9 -7
-14 -8 -14 -1 0 16 30 23 52 11 16 -9 19 -8 13 2 -6 9 -3 11 9 6 10 -4 15 -3
11 3 -3 6 1 11 9 11 33 3 37 4 45 18 5 8 7 19 5 25 -3 9 89 57 121 62 5 1 15
3 20 4 27 6 37 0 26 -14 -21 -26 5 -26 29 -1 27 28 50 34 29 8 -12 -16 -12
-17 2 -6 9 7 20 9 24 5 5 -4 5 -1 1 6 -4 6 -2 12 3 12 6 0 11 -6 11 -12 1 -7
7 -2 15 12 8 14 14 19 15 12 0 -8 5 -12 11 -10 16 5 7 22 -13 25 -11 2 -18 -4
-18 -15 0 -13 -2 -14 -9 -4 -11 18 -12 18 -40 3 -14 -8 -21 -9 -17 -2 7 11 75
33 111 35 11 1 26 5 33 9 6 5 12 4 12 -1 0 -6 -7 -12 -15 -16 -8 -3 -15 -13
-15 -22 0 -12 4 -14 13 -7 6 6 22 9 34 8 12 -1 22 1 21 4 -2 19 4 24 12 11 5
-8 12 -11 16 -7 10 9 1 17 -25 22 -12 2 -19 0 -16 -4 3 -5 -2 -11 -10 -15 -8
-3 -15 -2 -15 2 1 21 21 32 69 37 30 3 58 8 64 12 6 3 7 1 3 -5 -4 -7 -2 -12
3 -12 6 0 11 5 11 10 0 6 4 10 9 10 6 0 9 -9 8 -20 -1 -20 -26 -24 -38 -6 -4
4 -16 3 -28 -3 -16 -9 -21 -9 -21 0 0 7 -2 10 -5 7 -3 -3 -2 -13 1 -22 5 -14
9 -15 15 -4 7 11 11 10 19 -2 5 -9 10 -10 10 -3 0 12 17 12 38 0 11 -7 17 3
13 26 -3 17 18 5 24 -14 4 -12 10 -17 14 -12 3 6 20 9 36 8 17 -2 24 -1 18 2
-7 2 -13 9 -13 15 0 6 12 3 26 -7 15 -9 24 -12 20 -7 -3 6 -2 13 4 17 5 3 10
0 10 -9 0 -11 10 -14 40 -11 22 2 43 -1 46 -6 3 -5 13 -5 24 1 25 13 33 13 24
-2 -5 -9 -2 -9 9 1 13 10 17 10 17 1 0 -7 7 -10 16 -6 10 4 22 -1 30 -11 13
-17 14 -17 7 2 -6 18 -5 18 10 6 9 -7 17 -10 17 -5 0 5 4 3 9 -4 7 -11 9 -11
14 2 3 8 1 19 -5 22 -7 4 -14 2 -16 -5 -3 -9 -7 -9 -19 1 -8 7 -27 13 -42 14
-14 1 -26 3 -26 4 0 1 -10 4 -22 5 -12 1 -20 -2 -17 -6 3 -5 0 -9 -6 -9 -7 0
-10 6 -7 13 6 18 88 13 202 -13 33 -8 62 -14 65 -15 41 -8 185 -65 252 -99 81
-42 218 -128 249 -158 8 -7 37 -30 64 -52 44 -34 43 -31 -15 23 -210 198 -532
349 -845 396 -48 7 -329 14 -365 8z m190 -75 c0 -4 5 -8 11 -8 5 0 8 4 5 8 -3
5 13 9 34 10 22 1 40 -2 40 -6 0 -16 -13 -21 -31 -12 -12 7 -22 6 -31 -3 -20
-18 -33 -18 -45 2 -9 14 -8 18 3 18 8 0 14 -4 14 -9z m132 -7 c-1 -7 2 -10 8
-6 6 3 7 11 4 17 -4 6 -1 8 7 6 8 -3 13 -12 11 -19 -1 -9 3 -8 11 4 19 23 25
22 23 -7 0 -14 -5 -21 -11 -17 -5 4 -23 7 -40 7 -28 -1 -44 9 -45 27 0 5 8 7
18 5 9 -2 16 -10 14 -17z m-509 -55 c3 -8 -4 -22 -16 -33 -16 -14 -19 -14 -9
-1 10 12 10 18 1 23 -8 6 -7 10 2 16 18 11 16 11 22 -5z m-211 -94 c-7 -2 -10
-7 -8 -11 3 -4 -3 -7 -12 -7 -26 -1 -46 -8 -54 -19 -4 -5 -11 -6 -15 -1 -4 5
-3 10 2 12 6 2 26 12 45 22 19 10 39 16 45 13 5 -2 4 -6 -3 -9z m-220 -132
c-12 -11 -25 -20 -30 -20 -13 0 -43 -35 -37 -43 3 -4 2 -5 -2 -2 -3 3 -12 0
-19 -6 -8 -7 -14 -6 -20 2 -4 8 -3 9 4 5 7 -4 12 -3 12 3 0 12 88 81 103 81 6
0 1 -9 -11 -20z m-358 -365 c-34 -45 -41 -45 -12 0 13 19 27 35 31 35 4 0 -4
-16 -19 -35z m326 -635 c0 -11 -5 -20 -11 -20 -5 0 -7 5 -3 11 4 8 0 8 -15 0
-14 -8 -21 -8 -21 -1 0 8 25 24 48 29 1 1 2 -8 2 -19z m55 10 c17 14 32 -7 16
-23 -6 -6 -11 -7 -11 -3 0 5 -6 3 -14 -3 -10 -9 -16 -7 -27 5 -11 13 -10 17 2
24 8 6 15 5 17 -1 3 -6 9 -6 17 1z m74 -12 c1 7 13 12 29 12 15 -1 48 1 75 2
26 2 47 1 47 -2 0 -7 61 -4 83 5 13 6 17 2 16 -16 0 -14 -3 -18 -6 -10 -5 11
-7 11 -14 0 -7 -12 -9 -12 -9 0 0 11 -3 11 -15 1 -10 -9 -15 -9 -15 -1 0 6 -5
11 -11 11 -5 0 -8 -4 -5 -8 2 -4 -4 -8 -14 -8 -10 0 -16 4 -14 8 9 14 -7 9
-24 -8 -14 -15 -17 -15 -29 2 -12 16 -15 17 -23 4 -8 -12 -10 -12 -10 -1 0 11
-3 11 -15 1 -10 -9 -15 -9 -15 -1 0 6 -5 11 -11 11 -5 0 -8 -4 -5 -8 6 -11
-40 -9 -51 1 -4 5 -1 12 7 17 11 7 17 4 22 -8 4 -9 7 -11 7 -4z m316 0 c-5 9
2 12 27 10 19 -1 39 2 46 6 7 4 12 2 12 -5 0 -8 4 -8 13 -1 18 15 39 1 27 -18
-8 -12 -13 -13 -30 -2 -16 10 -20 10 -21 0 0 -10 -2 -10 -6 0 -4 10 -8 10 -19
1 -10 -8 -14 -8 -14 0 0 6 -5 11 -11 11 -5 0 -8 -4 -5 -8 2 -4 -6 -8 -20 -8
-13 0 -24 4 -24 9 0 5 -7 4 -15 -3 -10 -8 -15 -9 -15 -2 0 6 8 15 17 21 12 6
21 5 31 -7 7 -10 11 -11 7 -4z m-30 -736 c-3 -3 -11 0 -18 7 -9 10 -8 11 6 5
10 -3 15 -9 12 -12z m1655 -437 c-7 -9 -15 -13 -17 -11 -7 7 7 26 19 26 6 0 6
-6 -2 -15z m-2193 -329 c-4 -10 -1 -13 9 -9 7 3 14 0 14 -6 0 -6 5 -10 12 -8
7 1 13 -9 14 -23 l1 -24 -17 22 c-10 12 -23 22 -29 22 -14 0 -24 18 -16 30 9
15 18 12 12 -4z m1831 -21 c-4 -11 -28 -16 -28 -6 0 12 13 22 23 18 5 -1 7 -7
5 -12z m-1615 -103 c26 -12 47 -27 47 -33 0 -6 4 -8 9 -5 10 7 71 -16 71 -26
0 -4 -7 -8 -15 -8 -8 0 -15 6 -15 13 0 9 -2 9 -8 -1 -6 -9 -19 -5 -50 18 -23
17 -42 26 -42 21 0 -6 -11 1 -25 15 -14 14 -30 22 -37 18 -7 -4 -8 -3 -4 5 4
7 11 11 14 9 4 -2 28 -13 55 -26z m390 -131 c5 -1 5 -5 2 -11 -3 -5 -1 -10 4
-10 6 0 11 5 11 11 0 6 5 7 13 2 6 -4 21 -8 32 -9 11 -1 37 -3 58 -5 39 -3 42
-6 28 -27 -10 -17 -14 -16 -50 2 -16 9 -31 12 -35 9 -3 -4 -6 0 -6 7 0 10 -5
9 -19 -4 -16 -14 -20 -15 -30 -2 -7 8 -20 13 -29 11 -20 -3 -44 14 -36 26 3 5
15 7 27 5 12 -3 26 -5 30 -5z m547 -22 c0 11 3 11 15 1 22 -18 8 -31 -20 -18
-13 6 -22 15 -18 21 3 5 9 3 14 -4 7 -12 9 -12 9 0z m-368 -17 c3 -11 0 -19
-8 -19 -16 0 -16 0 -8 21 8 21 11 20 16 -2z"/>
<path d="M1175 2200 c3 -5 8 -10 11 -10 2 0 4 5 4 10 0 6 -5 10 -11 10 -5 0
-7 -4 -4 -10z"/>
<path d="M1385 2209 c-4 -6 -5 -12 -2 -15 2 -3 7 2 10 11 7 17 1 20 -8 4z"/>
<path d="M1730 415 c0 -7 30 -13 34 -7 3 4 -4 9 -15 9 -10 1 -19 0 -19 -2z"/>
<path d="M2366 3445 c-3 -8 -2 -14 2 -14 4 1 10 0 15 -1 4 -1 12 -4 17 -5 6
-1 11 -3 13 -5 11 -9 34 -5 34 6 0 7 -3 12 -6 12 -3 -1 -19 4 -34 10 -35 15
-34 15 -41 -3z"/>
<path d="M2460 3426 c0 -8 4 -17 9 -20 5 -4 7 3 4 14 -6 23 -13 26 -13 6z"/>
<path d="M2495 3411 c-2 -5 3 -15 12 -22 12 -10 14 -10 9 -1 -4 7 -1 12 9 12
10 0 13 -5 9 -12 -4 -7 -4 -10 1 -6 4 4 14 3 22 -3 7 -6 13 -8 13 -4 0 4 7 1
17 -6 15 -13 15 -12 2 9 -8 12 -16 17 -18 11 -2 -6 -9 -5 -20 4 -22 19 -49 28
-56 18z"/>
<path d="M1477 3379 c-37 -20 -45 -28 -32 -32 11 -5 14 -3 9 5 -5 8 -2 9 10 5
9 -4 27 0 40 8 12 8 26 12 31 8 4 -5 4 -2 0 6 -6 11 -4 13 8 8 10 -4 14 -2 11
7 -7 18 -23 15 -77 -15z m18 -9 c-3 -5 -12 -10 -18 -10 -7 0 -6 4 3 10 19 12
23 12 15 0z"/>
<path d="M2610 3358 c0 -4 7 -8 15 -8 8 0 15 4 15 8 0 5 -7 9 -15 9 -8 0 -15
-4 -15 -9z"/>
<path d="M2650 3340 c0 -5 9 -8 20 -7 21 1 18 10 -5 13 -8 1 -15 -2 -15 -6z"/>
<path d="M2707 3315 c3 -8 9 -12 14 -9 12 7 11 11 -5 17 -10 4 -13 1 -9 -8z"/>
<path d="M2759 3291 c13 -12 28 -21 34 -21 12 0 11 0 -28 24 l-30 17 24 -20z"/>
<path d="M900 2945 c-9 -10 -9 -15 -1 -15 6 0 11 5 11 11 0 5 5 7 12 3 7 -4 8
-3 4 4 -9 15 -11 15 -26 -3z"/>
<path d="M871 2907 c-8 -10 -7 -14 2 -14 8 0 14 6 14 14 0 7 -1 13 -2 13 -2 0
-8 -6 -14 -13z"/>
<path d="M3317 2522 c-117 -2 -173 -6 -181 -15 -82 -80 -293 -277 -300 -279
-6 -2 -26 62 -46 142 l-36 145 -167 3 -167 2 9 -23 c5 -14 8 -36 7 -50 -2 -15
1 -24 5 -21 8 4 12 -17 8 -42 0 -4 4 -10 10 -13 6 -4 11 -21 13 -39 1 -18 5
-32 8 -32 6 0 11 -25 14 -67 0 -11 4 -19 7 -17 10 6 16 -17 15 -48 -1 -14 1
-25 4 -23 6 4 26 -57 35 -103 2 -12 6 -26 9 -31 6 -8 -49 -60 -334 -316 -91
-82 -183 -165 -205 -185 -22 -20 -92 -84 -155 -141 -63 -57 -120 -108 -126
-114 -38 -36 -167 -150 -182 -161 -20 -16 -25 -15 187 -17 l134 -2 36 38 c19
20 38 37 42 37 4 0 30 23 57 50 28 28 53 47 56 42 6 -10 -8 -34 -20 -34 -17
-1 -44 -25 -36 -33 4 -5 1 -5 -7 0 -9 5 -12 4 -7 -3 3 -5 0 -13 -6 -15 -9 -4
-10 -6 -1 -6 6 -1 18 8 26 19 8 11 17 17 21 12 4 -4 6 0 4 8 -1 8 2 14 7 15
21 1 36 17 30 34 -3 12 9 31 39 59 49 46 62 52 46 22 -9 -16 -8 -18 5 -14 8 3
12 10 9 15 -3 5 0 9 7 9 9 0 10 3 2 11 -7 7 3 24 38 56 27 25 52 43 56 40 3
-4 1 -7 -6 -7 -8 0 -11 -6 -7 -16 4 -12 2 -15 -9 -11 -15 7 -31 -8 -17 -17 11
-7 37 11 37 26 0 7 7 14 15 14 8 1 20 3 25 4 6 1 14 2 19 1 5 -1 4 4 -2 12 -7
8 -8 18 -4 23 4 5 -3 1 -15 -9 -12 -11 -23 -14 -27 -8 -11 18 38 24 201 25 89
1 164 4 168 7 6 6 -48 229 -62 252 -3 7 -3 9 2 5 4 -4 16 3 26 15 10 12 18 17
19 11 0 -6 -7 -17 -15 -24 -8 -7 -15 -17 -15 -22 0 -5 8 -2 17 8 16 15 17 15
24 -2 11 -29 10 -36 -3 -28 -10 6 -9 3 0 -9 17 -20 50 -139 56 -201 2 -10 10
-24 19 -31 9 -7 14 -15 11 -18 -3 -3 0 -5 8 -4 17 3 17 21 -1 24 -7 1 -17 5
-22 10 -4 4 66 8 157 7 100 0 164 4 164 10 0 5 -14 61 -31 125 -17 64 -32 121
-34 126 -1 6 -7 29 -14 52 -6 23 -14 59 -17 80 -5 36 -2 42 36 76 23 20 45 37
50 37 4 0 11 7 14 16 5 12 13 14 34 9 24 -6 25 -5 9 7 -18 13 -18 14 1 32 15
13 22 14 28 5 5 -8 3 -10 -6 -4 -9 6 -11 4 -5 -5 6 -9 4 -11 -6 -5 -11 6 -11
5 -3 -4 9 -10 18 -6 40 16 16 15 27 32 26 37 -2 5 4 6 13 2 9 -3 13 -2 10 3
-3 5 4 12 15 16 11 4 17 11 14 17 -4 6 -9 7 -13 1 -3 -6 -16 -15 -29 -22 -12
-7 -20 -16 -17 -22 4 -5 1 -9 -4 -9 -20 0 -11 15 28 53 27 25 42 34 47 26 5
-8 3 -9 -6 -4 -8 5 -11 4 -6 -3 10 -16 31 -5 56 28 13 16 27 27 32 24 4 -3 7
0 6 8 -2 7 3 12 10 10 8 -1 11 2 7 8 -3 5 -1 10 4 10 6 0 11 5 11 12 0 7 -18
-6 -40 -27 -22 -21 -40 -35 -40 -30 0 5 35 42 77 83 70 67 79 73 98 61 18 -11
19 -11 6 5 -10 12 -11 20 -4 27 8 8 13 7 18 -2 6 -8 4 -10 -6 -4 -12 8 -12 6
0 -8 15 -19 22 -22 19 -8 -2 6 13 24 32 41 27 23 30 30 15 27 -11 -2 -19 -9
-17 -16 2 -9 -3 -11 -13 -7 -9 3 -13 2 -10 -3 3 -5 1 -12 -5 -16 -26 -16 -6
23 28 52 38 34 58 41 64 23 2 -6 9 0 17 12 13 21 13 22 -2 10 -11 -9 -17 -10
-22 -2 -4 6 5 20 20 32 14 11 24 23 21 25 -7 7 -91 8 -289 5z m-54 -357 c-5
-13 -23 -22 -23 -11 0 15 14 35 21 31 4 -3 6 -12 2 -20z m-118 -94 c3 -5 1
-12 -5 -16 -5 -3 -10 1 -10 9 0 18 6 21 15 7z"/>
<path d="M3535 2430 c-3 -6 1 -7 9 -4 18 7 21 14 7 14 -6 0 -13 -4 -16 -10z"/>
<path d="M3423 2324 c3 -6 -12 -21 -34 -34 -42 -27 -47 -35 -25 -43 10 -4 13
-1 10 8 -4 8 6 20 25 29 36 19 45 32 30 42 -7 4 -9 3 -6 -2z"/>
<path d="M1116 2130 c-25 -5 -33 -17 -78 -125 -27 -66 -50 -124 -51 -130 -1
-6 23 -10 56 -10 44 0 56 -3 52 -13 -3 -8 -5 -16 -5 -18 0 -2 -5 -4 -11 -4 -5
0 -7 5 -4 10 3 6 2 10 -3 10 -11 0 -25 -30 -17 -38 3 -3 5 0 5 8 0 10 3 10 15
0 8 -7 15 -8 15 -3 0 5 9 9 20 10 11 1 18 -2 15 -7 -3 -6 1 -7 10 -4 9 4 14
13 11 20 -7 19 8 26 65 28 38 1 48 -1 44 -12 -3 -7 -5 -16 -5 -18 0 -2 -5 -4
-11 -4 -5 0 -7 5 -4 10 3 6 2 10 -3 10 -11 0 -25 -30 -17 -38 3 -3 5 0 5 8 0
10 3 10 15 0 8 -7 15 -8 15 -3 0 13 43 11 52 -2 5 -6 8 -5 8 3 0 8 9 11 24 8
19 -3 23 -1 19 11 -5 12 -7 12 -14 1 -5 -7 -9 -8 -9 -3 0 6 -9 11 -20 12 -11
1 -20 -2 -20 -6 0 -4 -7 -8 -15 -8 -18 0 -20 13 -3 23 17 11 58 11 58 1 0 -4
9 -3 20 3 17 9 19 8 13 -7 -3 -10 -3 -15 2 -11 4 4 8 18 9 30 1 14 7 22 16 20
11 -3 11 0 1 12 -7 9 -8 17 -2 20 5 3 11 0 13 -6 3 -7 5 1 5 18 0 37 22 96 33
89 5 -3 6 4 3 15 -3 11 -1 20 4 20 5 0 9 8 9 18 0 9 3 26 7 37 7 19 2 20 -156
20 -90 0 -176 -2 -191 -5z m21 -278 c-1 -17 -37 -27 -37 -10 0 5 27 26 37 28
1 0 1 -8 0 -18z"/>
<path d="M3057 1980 c-8 -11 -16 -17 -19 -14 -3 3 -9 1 -13 -5 -12 -20 24 -11
38 9 8 11 17 17 22 12 5 -4 5 -1 1 6 -10 16 -12 15 -29 -8z"/>
<path d="M2989 1927 c-1 -7 -1 -16 0 -21 1 -5 -4 -6 -12 -3 -7 3 -14 -1 -14
-8 0 -10 6 -11 24 -2 17 8 20 13 11 19 -12 7 -11 9 11 12 19 2 19 12 1 13 -11
1 -21 -4 -21 -10z"/>
<path d="M1013 1853 c4 -7 0 -16 -9 -21 -11 -6 -13 -11 -5 -16 6 -4 11 -2 11
4 0 6 4 9 9 6 5 -3 15 2 22 12 7 9 9 14 5 10 -5 -4 -16 -2 -24 5 -11 8 -14 9
-9 0z"/>
<path d="M1169 1859 c-5 -26 -7 -51 -3 -41 3 6 9 10 14 7 4 -3 14 3 21 13 7 9
9 14 5 10 -5 -4 -15 -3 -23 3 -7 6 -13 10 -14 8z"/>
<path d="M2171 1691 c-10 -6 -9 -10 3 -14 8 -3 18 -2 21 3 8 13 -9 20 -24 11z"/>
<path d="M2144 1671 c7 -10 -18 -33 -27 -26 -4 3 -5 2 -2 -2 3 -3 -4 -13 -15
-20 -11 -8 -18 -19 -14 -24 3 -6 0 -9 -7 -7 -17 3 -57 -29 -70 -57 -9 -18 -9
-19 4 -3 8 10 18 14 22 10 5 -4 6 -2 3 3 -3 6 3 18 14 28 10 9 18 12 18 6 0
-8 5 -8 15 1 8 7 12 16 9 21 -3 5 -1 9 3 9 5 0 23 13 40 29 25 23 29 30 17 35
-8 3 -13 2 -10 -3z"/>
<path d="M1973 1515 c-8 -9 -9 -16 -3 -20 6 -3 10 -1 10 5 0 6 4 8 10 5 6 -3
7 1 4 9 -7 19 -6 19 -21 1z"/>
<path d="M709 1469 c0 -2 -2 -11 -4 -20 -1 -9 3 -16 10 -16 7 0 12 6 11 13 -2
13 -15 31 -17 23z"/>
<path d="M744 1445 c0 -19 3 -22 13 -13 10 8 10 14 2 24 -15 18 -15 18 -15
-11z"/>
<path d="M1637 1464 c-3 -3 -3 -13 0 -21 4 -11 8 -12 13 -3 4 7 13 9 19 6 6
-4 8 -13 4 -19 -5 -8 -2 -8 9 0 8 7 19 9 24 5 4 -4 2 1 -5 11 -8 9 -16 15 -19
13 -2 -3 -12 -1 -22 4 -10 5 -20 7 -23 4z"/>
<path d="M1714 1454 c9 -6 14 -13 11 -16 -3 -2 2 -5 10 -5 10 0 12 4 5 12 -5
7 -8 14 -5 16 2 3 -5 5 -16 5 -18 0 -18 -2 -5 -12z"/>
<path d="M1757 1464 c-3 -3 -3 -13 0 -21 4 -11 8 -12 13 -3 4 7 13 9 19 6 6
-4 8 -13 4 -19 -5 -8 -2 -8 9 0 8 7 19 9 24 5 4 -4 2 1 -5 11 -8 9 -16 15 -19
13 -2 -3 -12 -1 -22 4 -10 5 -20 7 -23 4z"/>
<path d="M1834 1455 c8 -7 13 -14 11 -17 -3 -3 5 -4 17 -4 13 1 24 6 25 11 0
6 -3 9 -8 8 -5 -2 -9 3 -9 10 0 8 -4 7 -10 -3 -5 -8 -10 -10 -10 -4 0 6 -7 11
-16 11 -15 0 -15 -1 0 -12z"/>
<path d="M2357 1464 c-3 -3 -3 -13 0 -21 4 -11 8 -12 13 -3 4 7 13 9 19 6 6
-4 8 -13 4 -19 -5 -8 -2 -8 9 0 8 7 19 9 24 5 4 -4 2 1 -5 11 -8 9 -16 15 -19
13 -2 -3 -12 -1 -22 4 -10 5 -20 7 -23 4z"/>
<path d="M2434 1454 c9 -6 14 -13 11 -16 -3 -2 2 -5 10 -5 10 0 12 4 5 12 -5
7 -8 14 -5 16 2 3 -5 5 -16 5 -18 0 -18 -2 -5 -12z"/>
<path d="M2477 1464 c-3 -3 -3 -13 0 -21 4 -11 8 -12 13 -3 4 7 13 9 19 6 6
-4 8 -13 4 -19 -5 -8 -2 -8 9 0 8 7 19 9 24 5 4 -4 2 1 -5 11 -8 9 -16 15 -19
13 -2 -3 -12 -1 -22 4 -10 5 -20 7 -23 4z"/>
<path d="M2551 1451 c10 -14 15 -17 21 -8 8 12 12 2 8 -18 -1 -5 4 -4 11 2 8
8 17 9 24 3 8 -7 12 -5 12 5 0 8 -5 11 -10 8 -6 -4 -8 0 -5 9 4 9 0 15 -8 15
-8 0 -14 -4 -14 -8 0 -9 -20 -6 -38 5 -11 7 -11 4 -1 -13z"/>
<path d="M2794 1455 c12 -9 13 -15 3 -25 -10 -12 -9 -12 4 -2 9 6 20 8 25 4 4
-4 3 0 -4 9 -6 9 -10 18 -7 20 2 3 -5 5 -16 5 -18 0 -18 -2 -5 -11z"/>
<path d="M2836 1462 c-2 -4 -1 -14 5 -22 6 -10 9 -11 9 -2 0 6 5 12 11 12 5 0
8 -4 5 -9 -4 -5 0 -8 6 -7 14 2 22 15 11 17 -5 1 -16 5 -25 10 -9 5 -19 5 -22
1z"/>
<path d="M2912 1457 c14 -11 15 -16 5 -27 -10 -12 -9 -12 3 -4 8 6 32 10 53 9
21 -1 40 2 43 7 3 5 11 5 17 2 7 -4 8 -3 4 2 -5 5 -12 8 -15 7 -4 0 -15 3 -24
8 -13 7 -16 6 -12 -5 7 -19 -24 -15 -37 5 -7 12 -9 12 -9 -1 0 -9 -3 -11 -8
-5 -4 6 -14 11 -22 13 -12 2 -11 -1 2 -11z"/>
<path d="M2645 1449 c-4 -6 -4 -13 -1 -16 3 -4 6 -1 6 6 0 7 5 9 12 5 7 -4 8
-3 4 4 -9 15 -13 15 -21 1z"/>
<path d="M2211 1367 c-17 -21 2 -35 21 -16 13 14 14 19 3 23 -7 2 -18 -1 -24
-7z"/>
<path d="M2119 1279 c-15 -16 -23 -31 -19 -34 4 -3 11 2 14 11 3 8 10 13 15
10 12 -8 31 17 23 31 -4 7 -17 0 -33 -18z"/>
<path d="M1950 1124 c0 -8 -6 -13 -12 -11 -7 1 -12 -3 -11 -10 1 -6 -4 -17
-12 -23 -8 -7 -15 -9 -15 -4 0 5 -4 3 -9 -5 -10 -16 -41 -24 -41 -11 0 4 -11
7 -24 6 -13 0 -22 -4 -20 -8 3 -4 -5 -6 -16 -5 -11 1 -20 5 -20 9 0 4 -5 8
-11 8 -5 0 -7 -4 -4 -10 9 -14 -8 -12 -24 3 -10 8 -12 8 -7 0 4 -8 -1 -11 -14
-10 -11 1 -20 4 -20 7 0 4 -18 6 -40 6 -31 0 -39 -4 -35 -15 4 -11 2 -11 -8
-2 -11 8 -17 8 -25 -2 -8 -9 -4 -13 19 -13 19 -1 29 3 29 12 0 8 5 14 11 14 5
0 8 -4 4 -9 -3 -5 0 -13 6 -17 7 -4 9 -3 6 3 -4 6 0 13 8 16 9 4 12 1 8 -9 -6
-17 8 -19 25 -2 7 7 12 8 12 2 0 -14 31 -14 48 -1 8 6 12 6 12 -1 0 -6 9 -10
20 -9 11 1 20 5 20 9 0 4 5 8 11 8 5 0 8 -4 5 -9 -7 -10 13 -9 31 2 6 4 14 1
16 -5 4 -10 6 -10 6 0 1 7 6 10 13 6 7 -4 8 -3 4 4 -4 7 -4 12 1 12 4 1 27 18
51 38 35 31 39 38 22 39 -11 1 -20 -4 -20 -13z"/>
<path d="M645 1059 c11 -13 21 -26 22 -28 2 -2 3 2 3 10 0 8 -10 20 -22 28
l-23 14 20 -24z"/>
<path d="M676 1022 c-3 -5 1 -9 9 -9 8 0 12 4 9 9 -3 4 -7 8 -9 8 -2 0 -6 -4
-9 -8z"/>
<path d="M709 983 c6 -13 20 -27 31 -33 11 -6 19 -16 17 -22 -1 -6 5 -13 13
-15 12 -4 12 -3 2 5 -8 5 -13 12 -12 16 0 4 -14 21 -31 39 -24 23 -29 26 -20
10z"/>
<path d="M3152 957 c-12 -13 -22 -28 -22 -34 0 -7 -9 -15 -20 -18 -11 -4 -18
-11 -14 -16 6 -11 54 35 54 52 0 6 5 7 12 3 6 -4 8 -3 4 4 -3 6 2 15 11 21 10
6 13 11 7 11 -6 0 -20 -10 -32 -23z"/>
<path d="M3070 876 c0 -2 7 -7 16 -10 8 -3 12 -2 9 4 -6 10 -25 14 -25 6z"/>
<path d="M3051 851 c-9 -6 -10 -11 -2 -15 6 -4 11 -2 11 4 0 6 5 8 12 4 7 -4
8 -3 4 4 -8 14 -7 14 -25 3z"/>
<path d="M3000 805 c-10 -12 -10 -15 3 -15 19 0 31 16 18 24 -5 3 -14 -1 -21
-9z"/>
<path d="M2961 776 c-18 -22 7 -32 27 -12 16 16 16 17 -2 10 -13 -5 -17 -4
-12 4 10 17 1 15 -13 -2z"/>
<path d="M2917 744 c-3 -5 1 -14 8 -21 10 -10 15 -9 19 4 4 9 4 18 1 21 -3 3
-5 -1 -5 -9 0 -12 -2 -12 -9 0 -5 7 -11 9 -14 5z"/>
<path d="M2797 650 c-8 -11 -16 -17 -19 -14 -3 3 -9 -1 -14 -8 -4 -7 -4 -10 1
-6 4 4 14 3 22 -4 8 -6 13 -7 12 -2 -1 5 -1 16 0 24 1 13 2 13 11 0 7 -12 9
-10 7 8 -2 27 -2 27 -20 2z"/>
<path d="M2730 609 c0 -5 -4 -8 -8 -5 -5 3 -19 -5 -33 -18 -14 -13 -32 -22
-42 -20 -9 1 -17 -2 -17 -7 0 -6 -4 -7 -10 -4 -5 3 -7 0 -4 -9 4 -11 0 -14
-15 -11 -11 2 -23 -1 -26 -6 -4 -5 -12 -6 -18 -2 -7 4 -6 0 2 -10 8 -10 9 -17
3 -17 -6 0 -14 4 -17 10 -7 12 -61 -13 -68 -32 -4 -10 -6 -10 -6 0 -1 6 -6 12
-12 12 -8 0 -7 -5 2 -16 12 -14 14 -14 25 1 9 12 13 13 17 3 4 -8 6 -7 6 5 1
9 6 17 12 17 5 0 7 -6 3 -12 -6 -10 -5 -10 8 -1 8 7 18 10 21 6 4 -3 17 3 30
14 12 11 30 19 39 18 11 -2 15 2 11 11 -4 11 1 14 21 10 14 -2 25 -2 25 2 -3
20 3 25 12 12 9 -13 10 -12 5 2 -3 10 -1 20 4 23 6 4 10 0 10 -7 0 -9 3 -9 10
2 5 8 10 11 10 6 0 -5 7 -3 15 4 8 7 12 16 9 21 -7 12 -24 11 -24 -2z"/>
<path d="M2417 465 c2 -8 13 -13 24 -12 12 1 15 5 9 11 -15 15 -39 16 -33 1z"/>
<path d="M2011 387 c-13 -20 -13 -21 1 -9 13 10 17 10 20 0 4 -10 8 -10 21 1
9 7 23 11 31 8 9 -4 13 -1 10 6 -6 16 -41 19 -50 5 -5 -7 -9 -7 -13 1 -4 6
-12 2 -20 -12z"/>
</g>
</svg>
