<?xml version="1.0" standalone="no"?>
<!DOCTYPE svg PUBLIC "-//W3C//DTD SVG 20010904//EN"
 "http://www.w3.org/TR/2001/REC-SVG-20010904/DTD/svg10.dtd">
<svg version="1.0" xmlns="http://www.w3.org/2000/svg"
 width="400.000000pt" height="400.000000pt" viewBox="0 0 400.000000 400.000000"
 preserveAspectRatio="xMidYMid meet">

<g transform="translate(0.000000,400.000000) scale(0.100000,-0.100000)"
fill="#000000" stroke="none">
<path d="M1900 3513 c-115 -12 -401 -85 -388 -98 2 -2 44 9 94 25 124 40 253
61 424 69 l145 8 -120 0 c-66 0 -136 -2 -155 -4z"/>
<path d="M2213 3503 c9 -2 25 -2 35 0 9 3 1 5 -18 5 -19 0 -27 -2 -17 -5z"/>
<path d="M2298 3493 c7 -3 16 -2 19 1 4 3 -2 6 -13 5 -11 0 -14 -3 -6 -6z"/>
<path d="M1470 3400 c-8 -5 -10 -10 -5 -10 6 0 17 5 25 10 8 5 11 10 5 10 -5
0 -17 -5 -25 -10z"/>
<path d="M830 3115 c-24 -25 -42 -45 -39 -45 3 0 25 20 49 45 24 25 42 45 39
45 -3 0 -25 -20 -49 -45z"/>
<path d="M1800 2388 c-29 -73 -58 -139 -63 -145 -7 -10 -91 -13 -336 -16
l-326 -2 327 -3 326 -2 -38 -97 c-21 -54 -73 -181 -114 -283 -80 -196 -88
-232 -58 -290 31 -63 67 -75 238 -78 l151 -4 119 109 c106 97 184 171 184 176
0 1 -85 1 -190 -1 -154 -2 -190 0 -190 11 0 7 4 17 8 23 5 5 20 37 35 71 l26
62 -53 20 c-29 11 -79 27 -112 36 -32 9 -65 18 -71 20 -9 3 -1 26 23 74 29 58
38 69 52 61 29 -15 203 -43 212 -34 4 5 24 43 45 84 20 41 41 83 46 92 10 20
99 238 99 244 0 2 -65 4 -143 4 l-144 0 -53 -132z"/>
<path d="M3225 2289 c-341 -314 -310 -279 -295 -325 18 -55 23 -58 51 -27 l24
28 -30 -25 -30 -25 24 27 c13 15 28 25 32 22 7 -4 609 541 609 552 0 2 -30 4
-67 4 l-68 -1 -250 -230z"/>
<path d="M3018 2388 c-98 -96 -103 -102 -24 -29 146 136 161 151 155 151 -4 0
-63 -55 -131 -122z"/>
<path d="M2441 2460 c0 -8 28 -114 64 -234 35 -121 61 -224 58 -230 -4 -8 -2
-8 5 -1 8 7 -7 73 -54 235 -71 248 -72 251 -73 230z"/>
<path d="M2859 2243 c-13 -16 -12 -17 4 -4 16 13 21 21 13 21 -2 0 -10 -8 -17
-17z"/>
<path d="M1077 2088 c-22 -54 -16 -60 8 -8 10 22 16 42 13 45 -3 3 -12 -14
-21 -37z"/>
<path d="M1019 1951 c-25 -59 -28 -75 -17 -82 7 -5 91 -8 186 -6 l173 2 30 73
c16 41 26 78 23 84 -4 6 -71 9 -185 7 l-179 -4 -31 -74z"/>
<path d="M382 1780 c0 -14 2 -19 5 -12 2 6 2 18 0 25 -3 6 -5 1 -5 -13z"/>
<path d="M2299 1753 c-13 -16 -12 -17 4 -4 9 7 17 15 17 17 0 8 -8 3 -21 -13z"/>
<path d="M391 1714 c0 -11 3 -14 6 -6 3 7 2 16 -1 19 -3 4 -6 -2 -5 -13z"/>
<path d="M2661 1714 c0 -11 3 -14 6 -6 3 7 2 16 -1 19 -3 4 -6 -2 -5 -13z"/>
<path d="M2443 1591 c-67 -60 -119 -112 -115 -115 7 -8 306 -8 326 0 9 3 13
11 9 18 -4 6 -19 54 -33 106 -20 77 -29 96 -45 98 -14 2 -59 -32 -142 -107z"/>
<path d="M2671 1680 c0 -8 4 -24 9 -35 l9 -20 0 20 c0 11 -4 27 -9 35 -9 13
-10 13 -9 0z"/>
<path d="M401 1664 c0 -11 3 -14 6 -6 3 7 2 16 -1 19 -3 4 -6 -2 -5 -13z"/>
<path d="M412 1625 c0 -11 3 -29 8 -40 11 -25 11 1 0 35 -6 20 -8 21 -8 5z"/>
<path d="M2690 1614 c0 -17 33 -130 40 -137 4 -5 11 -3 15 4 5 7 4 10 -2 6 -7
-4 -17 20 -28 63 -15 60 -25 86 -25 64z"/>
<path d="M431 1554 c-1 -15 40 -136 45 -131 2 2 -7 35 -20 73 -14 38 -25 64
-25 58z"/>
<path d="M2822 1483 c37 -2 100 -2 140 0 40 1 10 3 -67 3 -77 0 -110 -1 -73
-3z"/>
<path d="M481 1405 c0 -5 6 -21 14 -35 8 -14 14 -20 14 -15 0 6 -6 21 -14 35
-8 14 -14 21 -14 15z"/>
<path d="M510 1336 c0 -11 40 -86 45 -86 3 0 -4 19 -16 43 -23 45 -29 54 -29
43z"/>
<path d="M586 1192 c16 -29 39 -65 52 -80 12 -15 2 6 -22 47 -54 88 -71 107
-30 33z"/>
<path d="M1570 1090 c0 -5 5 -10 11 -10 5 0 7 5 4 10 -3 6 -8 10 -11 10 -2 0
-4 -4 -4 -10z"/>
<path d="M660 1076 c0 -2 8 -10 18 -17 15 -13 16 -12 3 4 -13 16 -21 21 -21
13z"/>
<path d="M3179 1063 c-13 -16 -12 -17 4 -4 9 7 17 15 17 17 0 8 -8 3 -21 -13z"/>
<path d="M717 1005 c17 -22 46 -53 64 -70 20 -17 13 -7 -15 25 -69 77 -85 92
-49 45z"/>
<path d="M825 880 c10 -11 20 -20 23 -20 3 0 -3 9 -13 20 -10 11 -20 20 -23
20 -3 0 3 -9 13 -20z"/>
<path d="M895 820 c21 -22 41 -40 44 -40 3 0 -13 18 -34 40 -21 22 -41 40 -44
40 -3 0 13 -18 34 -40z"/>
<path d="M955 770 c7 -11 116 -89 160 -114 30 -17 30 -17 5 1 -89 66 -170 121
-165 113z"/>
<path d="M1150 634 c0 -7 220 -111 250 -118 l25 -6 -25 11 c-14 7 -76 36 -137
65 -62 29 -113 51 -113 48z"/>
<path d="M1440 502 c24 -16 228 -64 247 -59 15 4 14 5 -3 6 -18 1 -141 30
-238 56 -16 5 -17 4 -6 -3z"/>
<path d="M2268 453 c7 -3 16 -2 19 1 4 3 -2 6 -13 5 -11 0 -14 -3 -6 -6z"/>
<path d="M2208 443 c6 -2 18 -2 25 0 6 3 1 5 -13 5 -14 0 -19 -2 -12 -5z"/>
<path d="M1728 433 c12 -2 30 -2 40 0 9 3 -1 5 -23 4 -22 0 -30 -2 -17 -4z"/>
<path d="M2143 433 c9 -2 23 -2 30 0 6 3 -1 5 -18 5 -16 0 -22 -2 -12 -5z"/>
<path d="M1868 423 c46 -2 118 -2 160 0 42 1 5 3 -83 3 -88 0 -123 -2 -77 -3z"/>
</g>
</svg>
